<svg xmlns="http://www.w3.org/2000/svg" viewBox="0 0 33 33"><defs><style>.a{fill:#f42a41;}.b{fill:#fff;}.c{fill:gray;}</style></defs><title>flag-circle-</title><path class="a" d="M16.5,4.46a12,12,0,0,0-12,12c0,0.24,0,.48,0,0.71h24c0-.24,0-0.47,0-0.71A12,12,0,0,0,16.5,4.46Z"/><path class="b" d="M16.5,28.54a12,12,0,0,0,12-11.33h-24A12,12,0,0,0,16.5,28.54Z"/><polygon class="b" points="13.28 6.71 13.55 7.58 14.47 7.58 13.74 8.12 14.02 8.98 13.28 8.44 12.54 8.98 12.82 8.12 12.08 7.58 13 7.58 13.28 6.71"/><polygon class="b" points="15.97 8.73 16.25 9.59 17.16 9.59 16.43 10.13 16.7 10.99 15.97 10.45 15.23 10.99 15.51 10.13 14.78 9.59 15.68 9.59 15.97 8.73"/><polygon class="b" points="10.54 8.73 10.82 9.59 11.74 9.59 11 10.13 11.28 10.99 10.54 10.45 9.8 10.99 10.09 10.13 9.35 9.59 10.26 9.59 10.54 8.73"/><polygon class="b" points="14.93 11.92 15.22 12.79 16.13 12.79 15.4 13.33 15.68 14.19 14.93 13.66 14.2 14.19 14.48 13.33 13.75 12.79 14.66 12.79 14.93 11.92"/><polygon class="b" points="11.6 11.92 11.88 12.79 12.79 12.79 12.05 13.33 12.33 14.19 11.6 13.66 10.86 14.19 11.14 13.33 10.4 12.79 11.31 12.79 11.6 11.92"/><path class="b" d="M5.32,12a4.82,4.82,0,0,0,4.61,3.45h0A4.92,4.92,0,0,0,11,15.35a5.2,5.2,0,0,1,0-9.43l-0.18,0A12.08,12.08,0,0,0,5.32,12Z"/><path class="c" d="M16.5,32A15.5,15.5,0,1,1,32,16.5,15.52,15.52,0,0,1,16.5,32Zm0-29.44A13.94,13.94,0,1,0,30.44,16.5,14,14,0,0,0,16.5,2.56Z"/></svg>