<svg xmlns="http://www.w3.org/2000/svg" viewBox="0 0 33 33"><defs><style>.a{fill:#ce1126;}.b{fill:#0038a8;}.c{fill:#fff;}.d{fill:#fcd116;}.e{fill:gray;}</style></defs><title>flag-circle-</title><path class="a" d="M8.73,25.74A12.07,12.07,0,0,0,28.57,16.5H22.13Z"/><path class="b" d="M16.5,4.43A12,12,0,0,0,8.73,7.26l13.4,9.24h6.45A12.07,12.07,0,0,0,16.5,4.43Z"/><path class="c" d="M8.73,7.26a12.06,12.06,0,0,0,0,18.47l13.4-9.24Z"/><path class="d" d="M13.73,17l0.43-.46-0.59-.45-1.29.16c-0.44.06-.4-0.13,0-0.2l1.13-.2a0.5,0.5,0,0,0-.6-0.2c-0.36.1-.85,0.41-1,0s-0.29-.36,0-0.5l0.59-.33a0.57,0.57,0,0,0,.42-0.62L12,14.75,11.58,15c-0.21.14,0-.22,0-0.26l1.08-.84a0.77,0.77,0,0,0,.16-0.75l-0.69.12-0.82,1c-0.28.34-.38,0.19-0.14-0.15l0.68-.93a0.5,0.5,0,0,0-.57.28l-0.34.58c-0.15.25-.07,0.26-0.37,0.11s-0.53,0-.45-0.34l0.15-.65a0.57,0.57,0,0,0-.16-0.73l-0.19,1-0.08.46c0,0.24-.17-0.16-0.17-0.21,0-.46.1-0.93,0.15-1.36a0.77,0.77,0,0,0-.42-0.62L9,12.32,9.11,13.6C9.16,14,9,14,8.9,13.6L8.7,12.46a0.5,0.5,0,0,0-.2.6l0.18,0.65C8.75,14,8.82,14,8.51,14.06s-0.38.33-.53,0.07L7.65,13.6A0.57,0.57,0,0,0,7,13.2L7.61,14l0.27,0.38c0.14,0.2-.23,0-0.26,0L6.76,13.29A0.77,0.77,0,0,0,6,13.15l0.1,0.73,1,0.79c0.34,0.27.2,0.37-.15,0.14l-0.93-.65a0.5,0.5,0,0,0,.29.56c0.34,0.19.93,0.3,0.72,0.68s0,0.49-.33.42l-0.65-.17a0.57,0.57,0,0,0-.73.16l1,0.18,0.46,0.08c0.24,0-.16.17-0.21,0.17L5.25,16.1a0.77,0.77,0,0,0-.63.44L5.21,17l1.29-.17c0.43-.06.4,0.12,0,0.2l-1.12.21a0.5,0.5,0,0,0,.6.19c0.37-.1.85-0.42,1,0s0.31,0.36.06,0.51l-0.59.32a0.57,0.57,0,0,0-.41.62l0.85-.62L7.25,18c0.2-.14,0,0.22,0,0.26l-1.07.85a0.76,0.76,0,0,0-.14.75l0.72-.09,0.81-1c0.27-.34.37-0.19,0.14,0.15l-0.65.93a0.5,0.5,0,0,0,.56-0.29L8,18.94c0.15-.25.07-0.26,0.36-0.12s0.51,0,.43.33l-0.18.65a0.58,0.58,0,0,0,.16.73c0.06-.34.12-0.69,0.18-1L9,19.06c0-.24.17,0.16,0.17,0.21L9,20.63a0.77,0.77,0,0,0,.44.63l0.45-.59L9.72,19.38c-0.06-.43.13-0.4,0.2,0l0.21,1.12a0.5,0.5,0,0,0,.19-0.6l-0.18-.65C10.06,19,10,19,10.31,18.91s0.38-.33.53-0.07l0.35,0.6a0.57,0.57,0,0,0,.63.4L11.2,19l-0.27-.38c-0.15-.2.23,0,0.26,0l0.86,1a0.77,0.77,0,0,0,.75.14l-0.1-.73-1-.79c-0.34-.27-0.19-0.37.15-0.14l0.93,0.64a0.5,0.5,0,0,0-.3-0.56c-0.33-.18-0.93-0.3-0.72-0.67s0-.47.33-0.4l0.65,0.18a0.57,0.57,0,0,0,.73-0.16L12.52,17l-0.39,0c-0.07,0-.33-0.23-0.09-0.2L13.78,17"/><polygon class="d" points="17.4 17.43 18 16.61 17.39 15.81 18.36 16.12 18.95 15.3 18.95 16.31 19.91 16.61 18.95 16.92 18.95 17.93 18.36 17.12 17.4 17.43"/><path class="e" d="M16.5,32A15.5,15.5,0,1,1,32,16.5,15.52,15.52,0,0,1,16.5,32Zm0-29.44A13.94,13.94,0,1,0,30.44,16.5,14,14,0,0,0,16.5,2.56Z"/></svg>