<svg xmlns="http://www.w3.org/2000/svg" viewBox="0 0 33 33"><defs><style>.a{fill:#010e66;}.b{fill:#dc241f;}.c{fill:#ffd100;}.d{fill:#fff;}.e{fill:gray;}</style></defs><title>flag-circle-</title><path class="a" d="M28.63,16.56a12.13,12.13,0,1,0-23.87,3H28.24A12.12,12.12,0,0,0,28.63,16.56Z"/><path class="b" d="M5.51,21.54h22a12,12,0,0,0,.7-1.92H4.8A12,12,0,0,0,5.51,21.54Z"/><path class="b" d="M16.5,28.57a12.07,12.07,0,0,0,5.69-1.42H10.81A12.07,12.07,0,0,0,16.5,28.57Z"/><path class="b" d="M6.61,23.44a12.18,12.18,0,0,0,1.7,1.92H24.69a12.18,12.18,0,0,0,1.7-1.92H6.61Z"/><path class="c" d="M15.61,16.15a4.27,4.27,0,1,1,0-8.53,4.54,4.54,0,0,1,2,.41,4.44,4.44,0,0,0-2.94-.94,4.92,4.92,0,0,0-4.9,4.82,4.92,4.92,0,0,0,4.9,4.79,5,5,0,0,0,2.94-.93,5,5,0,0,1-2,.41h0v0Z"/><path class="c" d="M19.39,7.89l0.42,2.61,1.35-2.19-0.79,2.51,2.24-1.37-1.82,1.89,2.66-.27L20.93,12l2.52,0.82-2.66-.27,1.82,1.92L20.37,13.1l0.79,2.5-1.4-2.06L19.39,16l-0.28-2.47L17.57,15.6l0.79-2.48-2.24,1.37L18,12.57l-2.52.27L17.85,12l-2.38-.93L18,11.36,16.13,9.43l2.24,1.39L17.53,8.35l1.59,2.16Z"/><path class="d" d="M6.61,23.47H26.38a12.09,12.09,0,0,0,1.11-1.92h-22A12.09,12.09,0,0,0,6.61,23.47Z"/><path class="d" d="M10.91,27.26H22.07a11.92,11.92,0,0,0,2.61-1.89H8.31A11.92,11.92,0,0,0,10.91,27.26Z"/><path class="e" d="M16.5,32A15.5,15.5,0,1,1,32,16.5,15.52,15.52,0,0,1,16.5,32Zm0-29.44A13.94,13.94,0,1,0,30.44,16.5,14,14,0,0,0,16.5,2.56Z"/></svg>