<svg xmlns="http://www.w3.org/2000/svg" viewBox="0 0 33 33"><defs><style>.a{fill:gray;}.b{fill:#fff;}.c{fill:#00247d;}.d{fill:#de1018;}</style></defs><title>flag-circle-</title><path class="a" d="M16.5,32A15.5,15.5,0,1,1,32,16.5,15.52,15.52,0,0,1,16.5,32Zm0-29.44A13.94,13.94,0,1,0,30.44,16.5,14,14,0,0,0,16.5,2.56Z"/><path class="b" d="M25.2,8.13H7.79a12.09,12.09,0,0,0-2.46,3.73H27.65A12.09,12.09,0,0,0,25.2,8.13Z"/><path class="b" d="M8.77,7.21l0,0,0.06,0h0Z"/><path class="b" d="M24.22,7.21h0l0.06,0Z"/><path class="c" d="M28.59,16.5a12,12,0,0,0-.93-4.65H5.34A12.07,12.07,0,0,0,5,20.22H28A12.06,12.06,0,0,0,28.59,16.5Z"/><path class="b" d="M7.79,24.87H25.21A12.07,12.07,0,0,0,28,20.22H5A12.07,12.07,0,0,0,7.79,24.87Z"/><path class="d" d="M25.21,24.87H7.79A12.06,12.06,0,0,0,25.21,24.87Z"/><path class="d" d="M25.2,8.13a12.23,12.23,0,0,0-.94-0.88l-0.06,0a12,12,0,0,0-15.42,0l-0.06,0a12.23,12.23,0,0,0-.94.88H25.2Z"/></svg>